# xmcd CD database file
#
# Track frame offsets:
#	150
#	37507
#	59638
#	90142
#	127894
#	145536
#
# Disc length: 2288 seconds
#
# Revision: 0
# Processed by: cddbd v1.5.1PL0 Copyright (c) Steve Scherf et al.
# Submitted via: CDex 1.51
#
DISCID=3b08ee06
DTITLE=LEE MORGAN - INDEED!
DYEAR=1956
DGENRE=Jazz
TTITLE0=ROCCUS
TTITLE1=REGGIE OF CHESTER
TTITLE2=THE LADY
TTITLE3=LITTLE T
TTITLE4=GAZA STRIP
TTITLE5=STAND BY
EXTD=YEAR: 1956
EXTT0=
EXTT1=
EXTT2=
EXTT3=
EXTT4=
EXTT5=
PLAYORDER=
